HIERARCHY
ROOT Pelvis
{
	OFFSET 0.000000 0.000000 0.000000
	CHANNELS 6 Xposition Yposition Zposition Xrotation Yrotation Zrotation
	JOINT LeftUpLeg_virtual
	{
		OFFSET 0.000000 0.000000 0.000000
		CHANNELS 3 Xrotation Yrotation Zrotation
		JOINT LeftUpLeg
		{
			OFFSET 18.735201 -5.666702 -4.541200
			CHANNELS 3 Xrotation Yrotation Zrotation
			JOINT LeftLeg
			{
				OFFSET -0.021200 -31.938179 0.493100
				CHANNELS 3 Xrotation Yrotation Zrotation
				JOINT LeftFoot
				{
					OFFSET 0.021200 -31.938179 -4.336299
					CHANNELS 3 Xrotation Yrotation Zrotation
					JOINT LeftToeBase
					{
						OFFSET 0.943001 -26.722000 15.023500
						CHANNELS 3 Xrotation Yrotation Zrotation
						End Site
						{
							OFFSET 0 0 0
						}
					}
				}
			}
		}
	}
	JOINT RightUpLeg_virtual
	{
		OFFSET 0.000000 0.000000 0.000000
		CHANNELS 3 Xrotation Yrotation Zrotation
		JOINT RightUpLeg
		{
			OFFSET -18.735201 -5.666702 -4.541200
			CHANNELS 3 Xrotation Yrotation Zrotation
			JOINT RightLeg
			{
				OFFSET 0.018946 -31.938133 0.493100
				CHANNELS 3 Xrotation Yrotation Zrotation
				JOINT RightFoot
				{
					OFFSET -0.018946 -31.938126 -4.336299
					CHANNELS 3 Xrotation Yrotation Zrotation
					JOINT RightToeBase
					{
						OFFSET -0.943001 -26.722004 15.023500
						CHANNELS 3 Xrotation Yrotation Zrotation
						End Site
						{
							OFFSET 0 0 0
						}
					}
				}
			}
		}
	}
	JOINT Hips_virtual
	{
		OFFSET 0.000000 0.000000 0.000000
		CHANNELS 3 Xrotation Yrotation Zrotation
		JOINT Hips
		{
			OFFSET -0.000000 -0.000000 -0.000000
			CHANNELS 3 Xrotation Yrotation Zrotation
			JOINT Spine
			{
				OFFSET 0.000000 10.199997 -0.299500
				CHANNELS 3 Xrotation Yrotation Zrotation
				JOINT Spine1
				{
					OFFSET 0.000000 11.900002 -1.516600
					CHANNELS 3 Xrotation Yrotation Zrotation
					JOINT Spine2
					{
						OFFSET 0.000000 13.600006 -2.842500
						CHANNELS 3 Xrotation Yrotation Zrotation
						JOINT Neck_virtual
						{
							OFFSET 0.000000 0.000000 0.000000
							CHANNELS 3 Xrotation Yrotation Zrotation
							JOINT Neck
							{
								OFFSET 0.000000 9.624100 -2.890100
								CHANNELS 3 Xrotation Yrotation Zrotation
								JOINT Head
								{
									OFFSET 0.000000 14.068802 -1.351900
									CHANNELS 3 Xrotation Yrotation Zrotation
									End Site
									{
										OFFSET 0 0 0
									}
								}
							}
						}
						JOINT LeftShoulder_virtual
						{
							OFFSET 0.000000 0.000000 0.000000
							CHANNELS 3 Xrotation Yrotation Zrotation
							JOINT LeftShoulder
							{
								OFFSET 15.263000 10.923401 -0.547700
								CHANNELS 3 Xrotation Yrotation Zrotation
								JOINT LeftArm
								{
									OFFSET 25.438599 -2.830597 -13.032500
									CHANNELS 3 Xrotation Yrotation Zrotation
									JOINT LeftForeArm
									{
										OFFSET 29.960503 0.000000 0.000000
										CHANNELS 3 Xrotation Yrotation Zrotation
										JOINT LeftHand
										{
											OFFSET 27.849251 0.000000 0.000000
											CHANNELS 3 Xrotation Yrotation Zrotation
											End Site
											{
												OFFSET 0 0 0
											}
										}
									}
								}
							}
						}
						JOINT RightShoulder_virtual
						{
							OFFSET 0.000000 0.000000 0.000000
							CHANNELS 3 Xrotation Yrotation Zrotation
							JOINT RightShoulder
							{
								OFFSET -15.263000 10.923401 -0.547700
								CHANNELS 3 Xrotation Yrotation Zrotation
								JOINT RightArm
								{
									OFFSET -25.438599 -2.830597 -13.032500
									CHANNELS 3 Xrotation Yrotation Zrotation
									JOINT RightForeArm
									{
										OFFSET -29.960503 0.000000 0.000000
										CHANNELS 3 Xrotation Yrotation Zrotation
										JOINT RightHand
										{
											OFFSET -27.849251 0.000000 0.000000
											CHANNELS 3 Xrotation Yrotation Zrotation
											End Site
											{
												OFFSET 0 0 0
											}
										}
									}
								}
							}
						}
					}
				}
			}
		}
	}
}
MOTION
Frames: 5
Frame Time: 0.03333333
-6.813335 91.140762 12.098782 0.000000 0.000000 0.000000 172.733599 -58.866156 171.403556 -9.997216 20.665164 20.567781 28.250301 19.756512 3.959637 -9.643544 11.926732 -22.878907 0.000000 0.000000 0.000000 173.765914 -59.506575 171.810567 -20.863132 -17.320470 -15.588770 26.790695 -14.746739 -1.126476 2.546725 -4.697875 10.176523 0.000000 0.000000 0.000000 171.125158 -60.685254 170.171390 -0.476870 1.521314 -0.834815 9.459428 -0.415688 0.973528 -2.239087 -1.761332 2.802576 0.000000 0.000000 0.000000 -2.745526 -0.833642 1.807419 -0.684958 3.890019 1.280238 0.000000 0.000000 0.000000 -2.882441 -0.665291 1.704053 0.111550 2.812278 -9.227341 -4.935948 -12.592266 -59.716624 6.450483 -18.290763 -6.039060 0.000000 0.000000 0.000000 -2.570868 -0.633376 2.159011 0.573621 -1.907468 14.964733 14.228407 23.747828 49.493620 15.114071 26.693680 -5.323759 0.000000 0.000000 0.000000 
-6.222891 90.663536 9.343119 0.000000 0.000000 0.000000 173.338631 -56.033742 172.108855 -9.349154 20.575689 21.865949 28.514117 20.153621 4.602777 -6.889020 11.584226 -25.408597 0.000000 0.000000 0.000000 174.392720 -56.654913 172.837910 -22.930398 -17.350996 -14.888921 28.599675 -13.807601 -0.724430 1.798993 -5.523238 9.574855 0.000000 0.000000 0.000000 172.002550 -58.132068 171.451805 -0.660261 1.513402 -0.629645 9.436384 -0.896405 0.803471 -2.176133 -2.082424 3.136160 0.000000 0.000000 0.000000 -2.724767 -1.181705 2.248233 -0.666973 3.379242 1.098554 0.000000 0.000000 0.000000 -2.900541 -1.042146 2.054893 0.109712 2.686849 -10.184182 -4.040966 -13.659019 -59.441572 5.684604 -18.142635 -6.467591 0.000000 0.000000 0.000000 -2.433279 -0.988528 2.550868 0.638102 -2.132927 15.168691 13.670930 23.765380 49.047244 15.461042 27.769686 -5.924012 0.000000 0.000000 0.000000 
-5.843723 90.193703 6.356586 0.000000 0.000000 0.000000 174.702565 -53.218402 173.399542 -9.410401 19.530975 23.463047 29.762215 19.991602 5.481691 -3.071409 10.227331 -27.282820 0.000000 0.000000 0.000000 175.635910 -53.604926 174.164100 -24.101861 -17.635313 -13.460250 30.074638 -12.314210 -0.051531 -1.041696 -6.209954 8.972735 0.000000 0.000000 0.000000 173.532731 -55.401013 173.061899 -0.858367 1.638603 -0.581428 9.568229 -1.319011 0.672116 -2.162371 -2.400736 3.347859 0.000000 0.000000 0.000000 -2.716548 -1.527783 2.548480 -0.633694 2.815071 0.957868 0.000000 0.000000 0.000000 -2.944526 -1.406297 2.283533 0.089951 2.415940 -10.763859 -3.071043 -14.805530 -59.393536 5.061165 -18.031221 -6.928780 0.000000 0.000000 0.000000 -2.326350 -1.347891 2.816150 0.782380 -2.317351 15.477250 13.015100 24.317251 48.700885 15.732132 28.641854 -6.464222 0.000000 0.000000 0.000000 
-5.656065 89.841125 3.073818 0.000000 0.000000 0.000000 176.695573 -50.241553 175.198081 -10.243630 17.883267 25.065372 32.152269 19.591359 6.408506 1.181457 8.342900 -27.746527 0.000000 0.000000 0.000000 177.387253 -50.271531 175.719648 -24.735300 -18.361697 -11.435449 31.655277 -10.392420 0.854694 -4.424676 -6.574501 8.500532 0.000000 0.000000 0.000000 175.508937 -52.221058 174.771523 -0.865941 2.017277 -0.756206 9.858947 -1.600282 0.612920 -2.227272 -2.657591 3.357274 0.000000 0.000000 0.000000 -2.714244 -1.813632 2.617687 -0.576354 2.215101 0.883248 0.000000 0.000000 0.000000 -3.024738 -1.690859 2.320567 0.045347 2.235626 -10.892232 -2.149309 -15.408323 -59.682466 4.669604 -17.946187 -7.310567 0.000000 0.000000 0.000000 -2.310760 -1.663173 2.848788 0.968481 -2.395943 15.861513 12.295573 25.372013 48.389510 15.861530 29.082795 -6.876431 0.000000 0.000000 0.000000 
-5.641962 89.725716 -0.395533 0.000000 0.000000 0.000000 178.933444 -47.076833 177.215528 -11.778103 15.767333 26.216674 35.431750 19.231989 7.049535 5.157150 6.483230 -26.533231 0.000000 0.000000 0.000000 179.342326 -46.609505 177.234598 -25.121514 -19.299475 -9.064727 33.165657 -8.147996 1.730241 -6.318246 -6.375568 7.950765 0.000000 0.000000 0.000000 177.712370 -48.602984 176.472595 -0.722559 2.594979 -0.990623 10.232905 -1.693305 0.665766 -2.330621 -2.800765 3.134756 0.000000 0.000000 0.000000 -2.732904 -1.991942 2.430927 -0.482245 1.603434 0.885994 0.000000 0.000000 0.000000 -3.141315 -1.842608 2.157013 -0.008079 2.294773 -10.663794 -1.247443 -15.035642 -60.382349 4.561834 -17.708234 -7.501955 0.000000 0.000000 0.000000 -2.432797 -1.882950 2.632638 1.160757 -2.283860 16.260706 11.623857 26.869942 47.968220 15.777927 29.021221 -7.006102 0.000000 0.000000 0.000000 
